<?xml version="1.0" encoding="UTF-8" standalone="no"?>
<!-- Created with Inkscape (http://www.inkscape.org/) -->

<svg
   version="1.1"
   id="svg1"
   width="16"
   height="16"
   viewBox="0 0 16 16"
   xmlns="http://www.w3.org/2000/svg"
   xmlns:svg="http://www.w3.org/2000/svg">
  <defs
     id="defs1" />
  <g
     id="layer5"
     transform="translate(-697.7071,-444.58499)"
     style="display:inline">
    <path
       id="path29"
       style="display:inline;fill:#e9aa56;stroke-width:0.0340482"
       d="m 710.26484,454.87697 c -0.0253,9e-4 -0.0594,0.0205 -0.12058,0.0473 -0.13044,0.057 -0.45133,0.18716 -0.84519,0.3428 -0.0819,0.0324 -0.44055,0.18022 -0.79712,0.32866 -0.63803,0.26561 -0.97296,0.40019 -1.43485,0.57644 -0.12861,0.0491 -0.27202,0.10776 -0.31878,0.13053 -0.0467,0.0226 -0.2955,0.12525 -0.5527,0.22764 -1.32056,0.52594 -2.59724,0.97398 -3.1591,1.80138 l -0.92693,2.14386 c 0.0311,0.0488 0.0564,0.0908 0.0864,0.13835 h 9.92474 c -0.0301,-0.11034 -0.0443,-0.1522 -0.0517,-0.15768 -0.01,-0.006 -0.0388,-0.10804 -0.0676,-0.22607 -0.0689,-0.28245 -0.10892,-0.44475 -0.14842,-0.60215 -0.0179,-0.0711 -0.0622,-0.28907 -0.0986,-0.48444 -0.0737,-0.39516 -0.12772,-0.66475 -0.20715,-1.03346 -0.0295,-0.13619 -0.0658,-0.31055 -0.0808,-0.38752 -0.0528,-0.26949 -0.1717,-0.66505 -0.29432,-0.9796 -0.0277,-0.0709 -0.0719,-0.18731 -0.0983,-0.25835 -0.082,-0.2213 -0.54907,-1.21497 -0.67292,-1.43169 -0.0767,-0.13409 -0.0941,-0.17872 -0.13612,-0.17591 z" />
    <path
       id="path11"
       style="display:inline;fill:#944c24;fill-opacity:1;stroke-width:0.0336682"
       d="m 710.01192,454.54668 c -2.6127,0.95333 -5.27927,1.7717 -7.97416,2.4708 -0.29501,0.26164 -0.66612,1.79022 -0.94303,3.59586 h 1.35632 c 0.62944,-3.39416 4.35046,-4.30481 7.46534,-5.51988 0.2435,-0.0991 0.45291,-0.17427 0.46536,-0.16717 z" />
  </g>
  <g
     id="layer1"
     transform="translate(-772.84646,-356.59243)">
    <path
       style="display:inline;fill:#428899;fill-opacity:1;stroke-width:0.0336682"
       d="m 779.29804,359.71876 c 3.83905,4.75965 2.49035,2.93119 4.5815,5.47115 0.22525,0.29999 0.29479,0.34308 0.64347,0.39877 1.67797,0.26805 2.79495,0.0545 4.04477,-0.65476 0.2323,-0.13182 0.19272,-0.0607 0.0894,0.0857 -4.07664,2.64887 0.5341,-0.5963 0.0201,-0.0397 -1.02014,1.10455 -4.89927,2.26906 -8.73993,3.26819 -0.23803,0.0568 -0.69092,0.0747 -1.26695,0.10051 -0.31168,0.014 -0.32622,0.004 -0.10582,-0.0707 0.17066,-0.0579 1.34924,-0.85129 1.87464,-1.26188 0.25973,-0.20299 0.41129,-0.29814 1.08689,-0.68244 0.35663,-0.20283 0.41567,-0.2519 0.40841,-0.33929 -0.005,-0.0555 -0.0154,-0.0758 -0.0377,-0.0708 -0.16677,0.0367 -0.67136,0.16587 -0.88172,0.19955 -0.1604,0.0257 -0.3197,-0.0602 -0.56325,-0.29358 -0.75909,-1.93454 -0.88336,-4.16282 -1.36963,-6.21176 -0.0364,-0.16067 -0.13917,-0.2662 -0.12512,-0.27868 0.0574,-0.0271 0.23956,0.25466 0.34103,0.37993 z"
       id="path26" />
    <path
       style="display:inline;fill:#442947;fill-opacity:1;stroke-width:0.0336682"
       d="m 773.21679,369.38049 -0.15213,-0.0786 0.3173,-0.0151 c 1.16542,-0.0833 2.51065,-0.78614 3.96635,-1.75005 0.36707,-0.24306 0.32636,-0.1916 0.35821,-0.45293 0.40219,-2.28273 0.68737,-4.58594 1.08952,-6.86844 0.0281,-0.15708 0.0618,-0.3665 0.0747,-0.46538 0.0338,-0.25966 0.0682,-0.41365 0.0903,-0.41365 0.0384,0 0.0849,0.12045 0.12137,0.28111 1.19498,4.58632 1.04479,5.78849 1.50851,6.23281 0.29829,0.33731 0.89722,0.15723 1.30609,0.0729 0.0224,-0.005 0.0332,0.0152 0.0377,0.0709 0.007,0.0874 -0.0517,0.13643 -0.40839,0.33929 -0.67561,0.38429 -0.82717,0.47945 -1.0869,0.68242 -0.52539,0.41059 -1.70397,1.20395 -1.87465,1.2619 -0.22043,0.0749 -0.20591,0.0846 0.10582,0.0707 1.84829,-0.0827 4.48636,-0.97031 8.02788,-2.40474 1.06128,-0.42985 1.53252,-0.81168 1.99241,-0.97433 -0.60905,1.03949 -1.688,1.7462 -2.73711,2.27535 -0.25585,0.12422 -0.24564,0.16332 -0.31747,0.0168 -0.041,-0.12317 -0.14997,-0.24044 -0.22476,-0.34085 -0.32258,-0.44337 -1.73886,0.56329 -6.75154,1.87351 -0.083,0.0192 -1.08677,0.34265 -1.48103,0.40295 -0.21321,0.0312 -0.22676,0.31439 -0.28386,0.48853 -1.02236,0.28799 -2.70177,0.16858 -3.67816,-0.30515 z"
       id="path24" />
  </g>
  <g
     id="layer6"
     transform="translate(-996.48931,-1080.8909)">
    <path
       id="path42"
       style="fill:#351b32;fill-opacity:1;stroke-width:0.0336682"
       d="m 1003.3022,1093.6237 0.718,0.4503 0.1418,-0.1677 -0.7291,-0.4424 z m 2.1531,1.9189 c -0.4548,-0.09 -0.9129,-0.8986 -0.6083,-0.9443 0.081,-0.014 0.1139,0.056 0.1956,0.2506 0.3018,0.7179 1.0059,0.6687 1.1521,-0.096 0.014,-0.068 0.023,-0.1256 0.023,-0.127 0,-0.018 0.058,-0.054 0.087,-0.054 0.087,0 0.139,0.1558 0.1036,0.3117 -0.1049,0.4697 -0.4465,0.7574 -0.9546,0.657 z m -2.0564,-0.7643 c -0.2772,-0.1589 -0.1727,-0.5944 0.1496,-0.6227 0.3649,-0.033 0.5388,0.462 0.2193,0.623 -0.1231,0.062 -0.2604,0.062 -0.3689,-3e-4 z m 3.9995,0 c -0.1876,-0.098 -0.213,-0.3913 -0.046,-0.5229 0.3144,-0.2473 0.7502,0.1152 0.5226,0.4341 -0.095,0.1324 -0.3161,0.1736 -0.477,0.09 z m 0.5223,-1.4192 -0.6453,0.5496 -0.1644,-0.1454 0.6573,-0.5435 z" />
  </g>
</svg>
