<?xml version="1.0" encoding="UTF-8" standalone="no"?>
<!-- Created with Inkscape (http://www.inkscape.org/) -->

<svg
   version="1.1"
   id="svg1"
   width="16"
   height="16"
   viewBox="0 0 16 16"
   xml:space="preserve"
   xmlns="http://www.w3.org/2000/svg"
   xmlns:svg="http://www.w3.org/2000/svg"><defs
     id="defs1" /><g
     id="layer5"
     transform="translate(-567.59945,-201.57032)"
     style="display:inline"><path
       style="display:inline;fill:#e9aa56;stroke-width:0.0193486"
       d="m 577.35584,215.27771 c -0.3949,-0.22685 -0.92357,-0.0753 -1.25747,-0.43443 -0.3781,-0.0808 -0.72255,-0.25955 -0.8572,-0.64711 -0.36445,-0.52328 -0.68118,-1.08135 -1.01001,-1.62486 -0.18866,-0.81424 -0.63726,-1.53245 -1.07479,-2.23335 0.18918,-0.41876 0.35223,-0.8523 0.55787,-1.26174 0.47202,-0.56191 1.22477,-0.73999 1.87108,-1.02317 0.58679,-0.28787 1.21743,-0.47426 1.81565,-0.73812 0.22554,-0.11335 0.4929,-0.26061 0.54998,0.10295 0.30729,0.58427 0.52486,1.21144 0.62861,1.86391 0.14437,0.87855 0.46754,1.71519 0.59577,2.59769 0.16835,1.01439 0.18383,2.10174 -0.25945,3.05107 -0.30314,0.54493 -1.04964,0.65621 -1.56004,0.34719 z"
       id="path29" /><path
       style="fill:#351b32;fill-opacity:1;stroke-width:0.0191326"
       d="m 577.15071,208.39518 -0.36679,0.31226 -0.0934,-0.0826 0.3735,-0.30878 z"
       id="path42-6" /><path
       style="display:inline;fill:#ce7834;stroke-width:0.0191326"
       d="m 576.8627,215.91065 c -0.6503,-0.10433 -1.29599,-0.27521 -1.8757,-0.59506 -0.4283,-0.18713 -0.84628,-0.42015 -1.15012,-0.78439 -0.5318,-0.59767 -0.83605,-1.40349 -0.78707,-2.20558 0.0135,-0.65474 -0.0369,-1.34071 0.25386,-1.94747 0.22434,0.28191 0.44867,0.56723 0.58169,0.90638 0.14319,0.42572 0.41485,0.80394 0.48469,1.25525 0.14476,0.48981 0.46704,0.89896 0.71107,1.34112 0.21609,0.34376 0.54263,0.60976 0.9235,0.75054 0.31159,0.1346 0.59025,0.34896 0.93442,0.39862 0.58292,0.11246 1.19254,0.14591 1.77698,0.0272 0.14587,-0.075 0.19631,-0.0875 0.075,0.0576 -0.20146,0.34316 -0.52187,0.59613 -0.85807,0.7971 -0.34272,0.12374 -0.72273,0.0459 -1.07022,-0.001 z"
       id="path13" /><path
       id="path11"
       style="display:inline;fill:#944c24;fill-opacity:1;stroke-width:0.0191326"
       d="m 577.64699,206.96881 c -0.67893,0.21426 -1.33902,0.49238 -2.02564,0.68409 -0.74578,0.24022 -1.50489,0.44403 -2.25775,0.66336 -0.48527,0.0234 -0.44537,0.65191 -0.57919,0.99584 -0.27377,1.31394 -0.45135,2.6575 -0.42413,4.00171 0.041,1.21554 0.79441,2.43095 1.95196,2.87345 1.04348,0.40396 2.22942,0.30874 3.26769,-0.0587 0.23478,-0.0704 0.76135,-0.44456 0.70157,-0.47176 -0.64633,0.36544 -1.42463,0.2623 -2.10516,0.0583 -0.66266,-0.21562 -1.35539,-0.41219 -1.92673,-0.82477 -0.73093,-0.54741 -0.90467,-1.51429 -0.9276,-2.372 -0.002,-0.65153 -0.057,-1.30652 0.003,-1.95616 0.0939,-0.88903 0.70068,-1.64091 1.45434,-2.08281 0.95733,-0.5789 2.04164,-0.89167 3.07746,-1.2948 -0.0701,-0.072 -0.14009,-0.1438 -0.21015,-0.21569 z" /></g><g
     id="layer9"
     style="display:inline"><ellipse
       style="fill:#351b32;fill-opacity:1;stroke-width:1.23163"
       id="path2"
       ry="0.076101989"
       rx="2.6649704"
       cy="15.826653"
       cx="8.0705395" /></g><g
     id="layer7"
     transform="translate(-38.801094,-886.32636)"><path
       style="display:inline;fill:#351b32;stroke-width:0.0191326"
       d="m 49.149229,897.005 c -0.02645,-0.0104 -0.145455,-0.0426 -0.264463,-0.0727 -0.226734,-0.0573 -0.297508,-0.0848 -0.318155,-0.12337 -0.109626,-0.20484 0.436533,-0.28252 0.672869,-0.0957 0.215986,0.17071 0.150754,0.38157 -0.09025,0.29171 z"
       id="path19" /><path
       style="display:inline;fill:#351b32;stroke-width:0.0191326"
       d="m 44.857617,897.68264 c -0.21329,-0.15945 0.16001,-0.26222 0.432838,-0.11917 0.231321,0.12131 0.375239,0.41239 0.220618,0.44625 -0.02716,0.006 -0.574317,-0.26791 -0.653456,-0.32708 z"
       id="path18" /><path
       style="display:inline;fill:#351b32;stroke-width:0.0191326"
       d="m 47.965157,898.00161 c -0.188343,-0.0343 0.01239,-0.20764 0.24042,-0.20764 0.228744,0 0.394037,0.12703 0.250217,0.19231 -0.05035,0.0229 -0.390834,0.0335 -0.490637,0.0153 z"
       id="path16" /><path
       style="display:inline;fill:#351b32;stroke-width:0.0191326"
       d="m 49.383361,899.08901 c -0.06166,-0.0377 0.02244,-0.13367 0.133223,-0.15201 0.233045,-0.0386 0.502015,0.0658 0.350477,0.13599 -0.04141,0.0192 -0.456085,0.033 -0.4837,0.0161 z"
       id="path15" /></g><g
     id="layer1-2"
     transform="matrix(0.01913253,0,0,0.01913253,-11.634635,-6.9723898)"><path
       style="display:inline;fill:#418698;fill-opacity:1"
       d="m 945.99085,449.6164 c 2.69603,-14.61358 2.25205,-20.65145 5.11136,-16.33074 0.88193,1.33268 4.52439,6.04436 8.09436,10.4704 114.02573,141.36886 73.96753,87.06102 136.07803,162.50164 6.6902,8.91015 8.7557,10.1902 19.112,11.84454 49.8385,7.96116 83.0143,1.61585 120.1361,-19.44779 6.8996,-3.91498 6.477,-2.98128 3.2971,1.69332 -94.4338,50.91792 9.2195,-9.53108 -0.043,-0.33322 -31.689,31.46787 -145.5167,67.395 -259.59031,97.07084 -7.07031,1.69088 -20.52174,2.21849 -37.63075,2.98392 -9.25756,0.41417 -9.68914,0.12604 -3.14152,-2.09736 5.06884,-1.72125 40.07491,-25.28518 55.68003,-37.48038 7.71425,-6.02862 12.21595,-8.8551 32.28245,-20.26922 10.5922,-6.025 12.346,-7.48209 12.13,-10.07772 -0.1374,-1.65065 -0.4571,-2.25045 -1.1213,-2.10391 -4.9532,1.0928 -19.9404,4.9272 -26.1883,5.92758 -4.7643,0.7628 -9.4953,-1.7882 -16.72942,-8.71977 -22.54609,-57.45906 -26.23795,-123.64291 -40.68029,-184.49982 -1.08025,-4.77194 -3.52704,-9.12286 -3.71949,-8.00119 z"
       id="path26-1" /><path
       style="display:inline;fill:#442947;fill-opacity:1"
       d="m 778.5733,730.72459 -4.51843,-2.33077 9.42455,-0.44958 c 34.61455,-2.47493 74.57017,-23.34946 117.8069,-51.97952 10.90241,-7.21925 9.69359,-5.69078 10.63936,-13.4527 11.94576,-67.80085 20.41582,-136.2098 32.36041,-204.00406 0.83622,-4.66515 1.83363,-10.88536 2.21646,-13.82268 1.00514,-7.71201 2.26346,-12.70767 2.91529,-12.70767 1.13806,0 2.28885,3.99916 3.3691,8.7711 35.49287,136.22123 31.03229,171.92774 44.80529,185.12482 8.85957,10.01852 26.64907,4.6697 38.79277,2.16719 0.6642,-0.14654 0.9838,0.45326 1.1212,2.10391 0.2161,2.59563 -1.5378,4.05272 -12.1299,10.07772 -20.0665,11.41412 -24.5682,14.2406 -32.2825,20.26922 -15.60512,12.1952 -50.61119,35.75913 -55.68003,37.48038 -6.54762,2.2234 -6.11604,2.51153 3.14152,2.09736 54.89711,-2.45601 133.25241,-28.82011 238.44111,-71.42481 31.522,-12.76739 45.5185,-24.10793 59.1777,-28.93931 0.845,-0.14956 -8.4216,12.04498 -17.7958,22.74317 -13.6192,15.54287 -36.6641,31.8152 -63.5008,44.83895 -7.5994,3.68796 -7.4141,3.70057 -9.548,-0.65027 -1.7589,-3.81535 -4.721,-6.80861 -7.1818,-10.16138 -9.5813,-13.16895 -51.0224,17.91772 -199.90656,56.83373 -2.46455,0.57446 -32.27862,10.17692 -43.98965,11.96798 -6.3323,0.92554 -6.73479,9.33799 -8.43075,14.51032 -30.36575,8.55385 -80.2472,5.00707 -109.24744,-9.0631 z"
       id="path24-8" /></g><g
     id="layer6"
     transform="translate(-866.38166,-837.87623)"><path
       style="display:inline;fill:#351b32;stroke-width:0.0191326"
       d="m 875.63605,845.5076 c -0.10659,-0.0563 -0.12113,-0.22234 -0.026,-0.29716 0.17868,-0.14056 0.42632,0.0651 0.29704,0.24667 -0.0535,0.0752 -0.17968,0.0987 -0.27104,0.0505 z"
       id="path23" /><path
       style="display:inline;fill:#351b32;fill-opacity:1;stroke-width:0.0191326"
       d="m 873.36325,845.50569 c -0.15755,-0.0903 -0.0982,-0.33772 0.085,-0.35388 0.20738,-0.0182 0.30617,0.2625 0.12457,0.35409 -0.0699,0.0353 -0.14789,0.0351 -0.20957,0 z"
       id="path22" /><path
       style="display:inline;fill:#351b32;stroke-width:0.0143637"
       d="m 874.53187,845.94005 c -0.25849,-0.051 -0.5188,-0.5107 -0.34576,-0.53667 0.0461,-0.007 0.0648,0.0319 0.11124,0.14235 0.17148,0.40802 0.57156,0.38004 0.65467,-0.0542 0.007,-0.0387 0.0135,-0.0711 0.0135,-0.072 0,-0.0104 0.0332,-0.03 0.0497,-0.03 0.0495,0 0.079,0.0886 0.0592,0.17722 -0.0597,0.26688 -0.25376,0.43031 -0.54242,0.37332 z"
       id="path21" /><path
       style="fill:#351b32;fill-opacity:1;stroke-width:0.0191326"
       d="m 873.30823,844.84954 0.40812,0.25589 0.0805,-0.0953 -0.41426,-0.25145 z"
       id="path42" /></g><g
     id="layer2"
     transform="translate(-1226.484,-633.60002)"><path
       d="m 1238.8742,640.10018 c -0.2145,0.11103 -0.5488,0.63747 -0.9876,0.8911 -0.1379,0.0863 -0.2929,0.15425 -0.4401,0.22271 0.014,0.0997 0.039,0.2256 0.056,0.31862 0.5657,-0.21146 1.1434,-0.80656 1.539,-1.33186 0.034,-0.0737 -0.098,-0.15846 -0.1671,-0.10057 z"
       style="display:inline;fill:#351b32;fill-opacity:1;stroke-width:0.0191326"
       id="path49" /><g
       id="layer1"
       transform="translate(1101.2916,438.3947)"><path
         id="path50"
         style="fill:#8f5717;fill-opacity:1;stroke-width:0.0245346"
         d="m 138.14841,197.312 c -0.14009,-0.009 -0.38133,0.13262 -0.41762,0.51626 -0.0536,0.70145 0.65684,0.75665 0.71751,0.0596 0.0273,-0.33537 -0.14514,-0.56541 -0.29989,-0.57587 z" /><path
         d="m 138.1761,198.28513 c -0.0286,0.0173 -0.15776,0.0439 -0.22768,-0.0206 -0.31729,3.52523 -0.49978,4.80917 -0.52601,5.01449 -0.003,0.0262 0.0692,0.0462 0.0869,0.0475 0.0207,0.001 0.1016,0.002 0.1047,-0.0231 0.19173,-1.55441 0.36124,-3.06895 0.56209,-5.01833 z"
         style="display:inline;fill:#8f5717;fill-opacity:1;stroke-width:0.0191326"
         id="path49-5" /></g><ellipse
       style="fill:#351b32;fill-opacity:1;stroke-width:0.015938"
       id="path1"
       cx="1238.9242"
       cy="640.19537"
       rx="0.27307093"
       ry="0.23950715" /></g><g
     id="layer3"
     transform="translate(-922.68856,-921.68186)"><path
       style="display:inline;fill:#351b32;stroke-width:0.0191326"
       d="m 927.41641,931.92968 c -0.54922,-0.24991 -0.79762,-0.86882 -0.55241,-1.37633 0.10347,-0.21421 0.46365,-0.49561 0.7738,-0.60466 0.11885,-0.0418 0.14653,-0.0426 0.13756,-0.004 -0.003,0.0159 -0.0115,0.0658 -0.0175,0.11146 -0.022,0.1691 -0.0262,0.17913 -0.0883,0.19487 -0.13955,0.0673 -0.35196,0.20586 -0.4242,0.28244 -0.31134,0.32999 -0.19669,0.851 0.23739,1.07899 0.066,0.0347 0.0634,0.0233 0.0469,0.21539 -0.0133,0.15367 -0.009,0.1498 -0.11323,0.10244 z"
       id="path17" /></g><g
     id="layer4"
     transform="translate(-25.113424,30.790238)"><path
       style="display:inline;fill:#351b32;stroke-width:0.0191326"
       d="m 32.026367,-15.105767 c 0.0079,-0.07443 0.03848,-0.155146 0.110032,-0.189682 0.09273,-0.04497 0.199243,-0.04519 0.300191,-0.04448 0.05755,0.002 0.112654,0.02142 0.163046,0.04801 0.01918,-0.03958 0.01123,-0.08852 0.01502,-0.132288 0.0037,-0.157735 -0.0012,-0.316048 0.01357,-0.473297 0.0026,-0.02364 0.0053,-0.04729 0.0079,-0.07093 0.08499,0.0062 0.169985,0.01244 0.254977,0.01866 0.01612,0.07679 0.0065,0.155604 0.0095,0.233432 4.54e-4,0.218172 0.008,0.436292 0.0083,0.654438 0.0059,0.03155 -0.01027,0.04523 -0.03919,0.03898 -0.279943,0.0025 -0.559886,0.0051 -0.839829,0.0076 -0.0012,-0.03014 -0.0023,-0.06029 -0.0035,-0.09043 z"
       id="path9" /><path
       style="display:inline;fill:#351b32;stroke-width:0.0191326"
       d="m 34.538631,-15.102369 c -0.0089,-0.0822 -0.04182,-0.17114 -0.119636,-0.211225 -0.08744,-0.04556 -0.189581,-0.05013 -0.286254,-0.04756 -0.06266,0.0039 -0.118647,0.03551 -0.167379,0.07263 -0.01918,-0.03958 -0.01123,-0.08852 -0.01502,-0.132288 -0.0041,-0.179325 0.0024,-0.359602 -0.02046,-0.537928 -0.0028,-0.01477 -0.02939,-10e-4 -0.04222,-0.0038 -0.07125,0.0054 -0.142499,0.01076 -0.213748,0.01615 -0.01612,0.07679 -0.0065,0.155604 -0.0095,0.233432 -4.54e-4,0.218172 -0.008,0.436292 -0.0083,0.654438 -0.0059,0.03156 0.01028,0.04523 0.0392,0.03898 0.279939,0.0025 0.559878,0.0051 0.839817,0.0076 0.0012,-0.03014 0.0023,-0.06029 0.0035,-0.09043 z"
       id="path9-2" /></g><g
     id="layer8"
     transform="translate(-313.0493,-460.83736)"><path
       style="display:inline;fill:#e9aa56;stroke-width:0.0191326"
       d="m 322.82008,462.28611 c -0.009,-0.0188 -0.0241,-0.0558 -0.0323,-0.0822 -0.0496,-0.15811 -0.15312,-0.27516 -0.30972,-0.34992 -0.0612,-0.0292 -0.11119,-0.0583 -0.11119,-0.0645 0,-0.0152 0.0406,-0.0364 0.0701,-0.0364 0.1551,0 0.27988,-0.10875 0.34444,-0.3002 0.0269,-0.0796 0.0594,-0.10826 0.0733,-0.0643 0.0883,0.28 0.15244,0.34695 0.35977,0.37581 0.11728,0.0163 0.11944,0.0186 0.0469,0.0499 -0.15393,0.0662 -0.18379,0.0833 -0.24777,0.14195 -0.078,0.0714 -0.12138,0.1519 -0.14651,0.27176 -0.0202,0.0963 -0.0247,0.10192 -0.0469,0.0582 z"
       id="path40" /><path
       style="display:inline;fill:#e9aa56;stroke-width:0.0191326"
       d="m 324.95166,462.98871 c -0.007,-0.0181 -0.019,-0.075 -0.0263,-0.1261 -0.007,-0.0512 -0.0187,-0.11067 -0.0251,-0.13223 -0.006,-0.0216 -0.0192,-0.0744 -0.0285,-0.11753 -0.0617,-0.28668 -0.2647,-0.47842 -0.57135,-0.53967 -0.12288,-0.0246 -0.13419,-0.0462 -0.0361,-0.069 0.25482,-0.0594 0.3241,-0.0892 0.41382,-0.17767 0.0784,-0.0774 0.13471,-0.16328 0.15773,-0.24063 0.0345,-0.11612 0.0755,-0.32598 0.0892,-0.45735 0.0293,-0.28111 0.0491,-0.27651 0.0727,0.0168 0.0471,0.58612 0.16091,0.77798 0.49716,0.83797 0.1988,0.0354 0.21206,0.0696 0.0436,0.1124 -0.33447,0.0851 -0.49087,0.31363 -0.52455,0.76643 -0.0114,0.15344 -0.0341,0.1994 -0.0624,0.12667 z"
       id="path39" /><path
       style="display:inline;fill:#e9aa56;stroke-width:0.0191326"
       d="m 327.63518,464.27324 c -0.004,-0.007 -0.0162,-0.0409 -0.0264,-0.0757 -0.0439,-0.14771 -0.11066,-0.22953 -0.2203,-0.26968 -0.0931,-0.0341 -0.087,-0.0881 0.0104,-0.0881 0.064,0 0.18737,-0.12411 0.20155,-0.20278 0.0203,-0.11273 0.0553,-0.11445 0.088,-0.004 0.0291,0.0979 0.0813,0.15442 0.18414,0.19951 0.0864,0.0378 0.0876,0.0581 0.006,0.0988 -0.12111,0.0604 -0.20134,0.17971 -0.20134,0.29927 0,0.0317 -0.0297,0.0624 -0.0416,0.043 z"
       id="path37" /><path
       style="display:inline;fill:#e9aa56;stroke-width:0.0290354"
       d="m 323.38733,464.60068 c -0.006,-0.0104 -0.0245,-0.0621 -0.0401,-0.11492 -0.0665,-0.22416 -0.16796,-0.34834 -0.33434,-0.40926 -0.14124,-0.0517 -0.13195,-0.13375 0.0151,-0.13375 0.0971,0 0.28435,-0.18835 0.30586,-0.30772 0.0309,-0.1711 0.0839,-0.1737 0.13361,-0.006 0.0443,0.14859 0.12341,0.23434 0.27945,0.30276 0.13103,0.0574 0.1329,0.0881 0.009,0.14993 -0.1838,0.0918 -0.30556,0.27272 -0.30556,0.45418 0,0.0481 -0.045,0.0947 -0.0631,0.0653 z"
       id="path37-1" /></g></svg>
