<?xml version="1.0" encoding="UTF-8" standalone="no"?>
<!-- Created with Inkscape (http://www.inkscape.org/) -->

<svg
   version="1.1"
   id="svg1"
   width="470"
   height="470"
   viewBox="0 0 469.99999 470"
   sodipodi:docname="favicon.svg"
   inkscape:version="1.3.2 (091e20e, 2023-11-25, custom)"
   xmlns:inkscape="http://www.inkscape.org/namespaces/inkscape"
   xmlns:sodipodi="http://sodipodi.sourceforge.net/DTD/sodipodi-0.dtd"
   xmlns="http://www.w3.org/2000/svg"
   xmlns:svg="http://www.w3.org/2000/svg">
  <defs
     id="defs1" />
  <sodipodi:namedview
     id="namedview1"
     pagecolor="#ffffff"
     bordercolor="#000000"
     borderopacity="0.25"
     inkscape:showpageshadow="2"
     inkscape:pageopacity="0.0"
     inkscape:pagecheckerboard="0"
     inkscape:deskcolor="#d1d1d1"
     showgrid="false"
     inkscape:zoom="1.4142136"
     inkscape:cx="49.143921"
     inkscape:cy="188.44396"
     inkscape:window-width="3440"
     inkscape:window-height="1369"
     inkscape:window-x="1912"
     inkscape:window-y="-8"
     inkscape:window-maximized="1"
     inkscape:current-layer="layer1" />
  <g
     inkscape:groupmode="layer"
     inkscape:label="Image"
     id="g1"
     transform="translate(-629.83969,-537.46379)">
    <g
       id="g9"
       style="display:inline"
       transform="translate(360.18681,-4.6296499)" />
  </g>
  <g
     inkscape:groupmode="layer"
     id="layer5"
     inkscape:label="body"
     transform="translate(-697.7071,-444.58499)"
     style="display:inline">
    <path
       id="path29"
       style="display:inline;fill:#e9aa56;stroke-width:1.01129"
       d="m 1065.4198,744.58013 c -0.75,0.0502 -1.7636,0.60825 -3.5801,1.40234 -3.8745,1.69371 -13.405,5.5591 -25.1035,10.18164 -2.4308,0.96048 -13.0848,5.35273 -23.6758,9.76172 -18.95022,7.88895 -28.89861,11.88629 -42.6172,17.1211 -3.8197,1.45752 -8.07975,3.2013 -9.46875,3.87695 -1.3891,0.67565 -8.77662,3.71927 -16.41602,6.76172 -39.22218,15.62051 -77.14209,28.92809 -93.83007,53.5039 l -27.53125,63.67579 c 0.92388,1.4476 1.67303,2.69824 2.56445,4.10937 h 294.78124 c -0.8958,-3.27641 -1.315,-4.52083 -1.5332,-4.68359 -0.2501,-0.18656 -1.1541,-3.20845 -2.0098,-6.71485 -2.0471,-8.38892 -3.2359,-13.20952 -4.4082,-17.88476 -0.529,-2.11024 -1.8481,-8.5855 -2.9296,-14.38867 -2.1877,-11.73665 -3.7915,-19.74439 -6.1524,-30.69532 -0.872,-4.04458 -1.9524,-9.22367 -2.4004,-11.50976 -1.5688,-8.00441 -5.0992,-19.7529 -8.7422,-29.09571 -0.8229,-2.11023 -2.1358,-5.5636 -2.9179,-7.67382 -2.4362,-6.57261 -16.3079,-36.08647 -19.9864,-42.52344 -2.276,-3.98284 -2.7929,-5.30822 -4.0429,-5.22461 z" />
    <path
       id="path11"
       style="display:inline;fill:#944c24;fill-opacity:1"
       d="m 1057.908,734.76958 c -77.60142,28.31573 -156.80309,52.62256 -236.84566,73.38672 -8.76248,7.7714 -19.78482,53.17245 -28.00976,106.80274 h 40.28515 C 852.03306,814.1469 962.55341,787.0993 1055.0702,751.00982 c 7.2329,-2.94149 13.4527,-5.17592 13.8222,-4.96485 z"
       sodipodi:nodetypes="ccccccc" />
  </g>
  <g
     inkscape:groupmode="layer"
     id="layer1"
     inkscape:label="hat"
     transform="translate(-772.84646,-356.59243)">
    <path
       style="display:inline;fill:#428899;fill-opacity:1"
       d="m 959.19657,443.75606 c 114.02573,141.36886 73.96753,87.06102 136.07803,162.50164 6.6902,8.91015 8.7557,10.1902 19.112,11.84454 49.8385,7.96116 83.0143,1.61585 120.1361,-19.44779 6.8996,-3.91498 5.7244,-1.80116 2.655,2.54198 -121.0829,78.67544 15.8634,-17.71142 0.597,-1.18188 -30.3002,32.8073 -145.5167,67.395 -259.59031,97.07084 -7.07031,1.69088 -20.52174,2.21849 -37.63075,2.98392 -9.25756,0.41417 -9.68914,0.12604 -3.14152,-2.09736 5.06884,-1.72125 40.07491,-25.28518 55.68003,-37.48038 7.71425,-6.02862 12.21595,-8.8551 32.28245,-20.26922 10.5922,-6.025 12.346,-7.48209 12.13,-10.07772 -0.1374,-1.65065 -0.4571,-2.25045 -1.1213,-2.10391 -4.9532,1.0928 -19.9404,4.9272 -26.1883,5.92758 -4.7643,0.7628 -9.4953,-1.7882 -16.72942,-8.71977 -22.54609,-57.45906 -26.23795,-123.64291 -40.68029,-184.49982 -1.08025,-4.77194 -4.13348,-7.90657 -3.71826,-8.27646 1.70584,-0.8063 7.11554,7.5635 10.12954,11.28381 z"
       id="path26"
       sodipodi:nodetypes="sssscssssssssssscs" />
    <path
       style="display:inline;fill:#442947;fill-opacity:1"
       d="m 778.5733,730.72459 -4.51843,-2.33077 9.42455,-0.44958 c 34.61455,-2.47493 74.57017,-23.34946 117.8069,-51.97952 10.90241,-7.21925 9.69359,-5.69078 10.63936,-13.4527 11.94576,-67.80085 20.41582,-136.2098 32.36041,-204.00406 0.83622,-4.66515 1.83363,-10.88536 2.21646,-13.82268 1.00514,-7.71201 2.02908,-12.28579 2.68091,-12.28579 1.13806,0 2.52323,3.57728 3.60348,8.34922 35.49287,136.22123 31.03229,171.92774 44.80529,185.12482 8.85957,10.01852 26.64907,4.6697 38.79277,2.16719 0.6642,-0.14654 0.9838,0.45326 1.1212,2.10391 0.2161,2.59563 -1.5378,4.05272 -12.1299,10.07772 -20.0665,11.41412 -24.5682,14.2406 -32.2825,20.26922 -15.60512,12.1952 -50.61119,35.75913 -55.68003,37.48038 -6.54762,2.2234 -6.11604,2.51153 3.14152,2.09736 54.89711,-2.45601 133.25241,-28.82011 238.44111,-71.42481 31.522,-12.76739 45.5185,-24.10793 59.1777,-28.93931 -18.0897,30.87466 -50.1362,51.86522 -81.2966,67.58212 -7.5994,3.68796 -7.2952,4.85053 -9.4291,0.49965 -1.2199,-3.65734 -4.4546,-7.14177 -6.6757,-10.12384 -9.5813,-13.16895 -51.6474,16.73022 -200.53156,55.64623 -2.46455,0.57446 -32.27862,10.17692 -43.98965,11.96798 -6.3323,0.92554 -6.73479,9.33799 -8.43075,14.51032 -30.36575,8.55385 -80.2472,5.00707 -109.24744,-9.0631 z"
       id="path24"
       sodipodi:nodetypes="scsssssssssscssssssscsssss" />
  </g>
  <g
     inkscape:groupmode="layer"
     id="layer6"
     inkscape:label="face"
     transform="translate(-996.48931,-1080.8909)">
    <path
       id="path42"
       style="fill:#351b32;fill-opacity:1"
       d="m 1193.5665,1453.3874 21.3316,13.3741 4.2066,-4.9805 -21.6523,-13.143 z m 63.956,56.9975 c -13.5106,-2.6675 -27.1158,-26.6934 -18.0721,-28.0507 2.4102,-0.3617 3.3883,1.6676 5.8145,7.4406 8.963,21.3259 29.8736,19.8634 34.2173,-2.8363 0.387,-2.0228 0.7038,-3.7156 0.7038,-3.762 5e-4,-0.5203 1.733,-1.5667 2.5939,-1.5667 2.5836,0 4.1299,4.6308 3.0932,9.2633 -3.1216,13.9487 -13.2634,22.4907 -28.3506,19.5118 z m -61.0803,-22.7024 c -8.2346,-4.721 -5.1285,-17.6517 4.443,-18.4964 10.8392,-0.9565 16.0027,13.7203 6.5109,18.5067 -3.6533,1.8423 -7.7292,1.8384 -10.9539,-0.01 z m 118.7924,0.1 c -5.5712,-2.9395 -6.3309,-11.6215 -1.3592,-15.5323 9.3396,-7.3464 22.2832,3.4028 15.5253,12.8933 -2.7987,3.9305 -9.3908,5.1585 -14.1661,2.639 z m 15.5165,-42.155 -19.1712,16.321 -4.8832,-4.3192 19.5219,-16.1386 z" />
  </g>
</svg>
