<?xml version="1.0" encoding="UTF-8" standalone="no"?>
<!-- Created with Inkscape (http://www.inkscape.org/) -->

<svg
   version="1.1"
   id="svg1"
   width="613.23987"
   height="827.68658"
   viewBox="0 0 613.23987 827.68658"
   sodipodi:docname="logo.svg"
   inkscape:version="1.3.2 (091e20e, 2023-11-25, custom)"
   xml:space="preserve"
   xmlns:inkscape="http://www.inkscape.org/namespaces/inkscape"
   xmlns:sodipodi="http://sodipodi.sourceforge.net/DTD/sodipodi-0.dtd"
   xmlns="http://www.w3.org/2000/svg"
   xmlns:svg="http://www.w3.org/2000/svg"><defs
     id="defs1" /><sodipodi:namedview
     id="namedview1"
     pagecolor="#ffffff"
     bordercolor="#000000"
     borderopacity="0.25"
     inkscape:showpageshadow="2"
     inkscape:pageopacity="0.0"
     inkscape:pagecheckerboard="0"
     inkscape:deskcolor="#d1d1d1"
     showgrid="false"
     inkscape:zoom="5.6568542"
     inkscape:cx="314.57413"
     inkscape:cy="272.85483"
     inkscape:window-width="3440"
     inkscape:window-height="1369"
     inkscape:window-x="1912"
     inkscape:window-y="-8"
     inkscape:window-maximized="1"
     inkscape:current-layer="svg1" /><g
     inkscape:groupmode="layer"
     inkscape:label="Image"
     id="g1"
     transform="translate(-499.73204,-294.44912)"><g
       id="g9"
       style="display:inline"
       transform="translate(360.18681,-4.6296499)" /><path
       id="path50"
       style="fill:#351b32"
       d="m 993.15328,452.042 c -5.70943,-0.38603 -15.54244,5.40571 -17.02131,21.04187 -0.65453,8.57157 1.94967,16.60618 6.70643,20.69075 1.81949,1.65653 4.20167,0.58417 6.37067,0.83576 1.76534,0.10301 3.23904,1.78015 4.95996,0.92482 5.94327,-2.78977 10.40097,-10.75305 11.20787,-20.02164 1.1115,-13.66919 -5.91642,-23.04512 -12.22362,-23.47156 z"
       sodipodi:nodetypes="scccccs" /></g><g
     inkscape:groupmode="layer"
     id="layer5"
     inkscape:label="body"
     transform="translate(-567.59945,-201.57032)"
     style="display:inline"><path
       style="display:inline;fill:#e9aa56;stroke-width:1.01129"
       d="m 912.58278,913.62259 c -19.1108,-12.0581 -44.18952,-3.9176 -57.89694,-17.3767 -12.4047,-12.1799 -34.24753,-7.60399 -43.35303,-23.46179 -2.6253,-4.5721 -6.2401,-10.75898 -8.0331,-13.74846 -1.7928,-2.98949 -16.89643,-25.04829 -18.75923,-28.21364 l -31.11589,-51.6155 c -10.97997,-11.34287 3.68049,-23.46538 -60.33499,-123.76935 l 27.53196,-63.676 c 16.688,-24.57584 54.60714,-37.88418 93.82936,-53.50471 7.6394,-3.04245 15.0261,-6.08452 16.4152,-6.76017 1.389,-0.67565 5.03178,-3.21647 8.85148,-4.674 13.7186,-5.23481 23.6661,-9.31931 43.23504,-16.32439 10.80091,-3.86639 21.245,-8.8022 23.6758,-9.76268 11.6985,-4.62255 21.2288,-8.48796 25.1033,-10.18167 4.8441,-2.11759 3.9815,-2.55009 7.6231,3.82246 3.6785,6.43698 17.5507,35.9518 19.9869,42.52441 0.7821,2.11023 2.0953,5.56334 2.9182,7.67358 3.643,9.34282 7.1726,21.09121 8.7414,29.09562 0.448,2.2861 1.5281,7.46581 2.4001,11.5104 2.3609,10.95094 3.9661,18.95759 6.1538,30.69425 1.0816,5.80318 2.3995,12.27779 2.9285,14.38803 1.1723,4.67525 2.3604,9.4967 4.4075,17.88563 0.8557,3.5064 1.7603,6.52783 2.0104,6.71439 0.4845,0.36141 1.5897,4.48325 7.9782,29.75453 7.56646,29.93163 12.72546,58.72602 14.85776,82.92763 3.7884,42.99823 1.1693,73.82132 -8.9013,104.75523 -0.9733,2.9895 -2.3613,7.5218 -3.08456,10.0717 -11.37501,38.23541 -53.4921,50.37985 -87.16896,31.2512 z"
       id="path29"
       sodipodi:nodetypes="ssssccccssssssssssssssssssss" /><path
       style="fill:#351b32;fill-opacity:1"
       d="m 901.86121,553.89328 -19.17114,16.32094 -4.88325,-4.31913 19.52195,-16.13867 z"
       id="path42-6" /><path
       style="display:inline;fill:#ce7834"
       d="m 886.80825,946.70479 c -40.17288,-7.3462 -49.92278,-10.0357 -80.10138,-22.0961 -15.11984,-8.27896 -33.21766,-15.52798 -48.03697,-24.14806 -41.99133,-27.1656 -68.3895,-76.34964 -71.271,-123.38914 l 0.2444,-30.7568 0.2099,-14.3457 c 0.5354,-36.59229 3.4904,-53.54899 12.971,-74.43086 l 16.82054,21.75857 c 1.7174,3.1101 3.4862,6.0788 3.9307,6.5972 1.4791,1.7247 10.9861,21.17629 11.4018,23.32819 0.5449,2.8209 4.9842,13.1215 9.1715,21.2813 20.38413,39.7222 5.53585,32.97366 31.06775,75.80986 1.8538,3.1101 4.8304,8.058 6.6146,10.9953 1.7843,2.9373 5.3817,9.0161 7.9943,13.5085 9.0615,15.58103 12.0662,19.44793 24.411,31.41523 13.6412,13.22407 31.47907,16.43218 50.49755,28.27978 26.3222,16.3975 93.41647,18.67384 120.97822,11.58753 2.72002,-0.69933 9.17597,-4.40113 8.4385,-3.50035 -4.18734,5.11471 -6.63929,11.38367 -17.59457,23.92765 -5.47251,6.2661 -23.9524,19.40886 -26.00761,20.9795 -13.68497,10.45838 -41.86826,6.2808 -61.74023,3.1984 z"
       id="path13"
       sodipodi:nodetypes="cssccsccssssssssssssc" /><path
       id="path11"
       style="display:inline;fill:#944c24;fill-opacity:1"
       d="m 927.8002,479.34208 c -3.6116,0.39121 -9.8012,2.84387 -22.5195,7.78711 -2.555,0.99304 -5.6658,2.05929 -6.9121,2.36914 -3.1633,0.78643 -15.7211,5.16699 -21.7423,7.58399 -2.7645,1.10974 -6.7234,2.53068 -8.7968,3.1582 -5.3207,1.61032 -17.3385,5.89565 -18.9102,6.74219 -1.3816,0.74416 -8.6236,2.89818 -13.4473,4 -4.4585,1.01843 -12.4015,3.567 -18.2207,5.8457 -5.7631,2.25676 -10.9521,3.87418 -14.4511,4.50586 -1.2095,0.21835 -3.7871,0.91683 -5.7285,1.55273 -1.9415,0.63591 -4.9107,1.45649 -6.5977,1.82227 -1.687,0.36578 -7.0254,1.89257 -11.8633,3.39258 -17.99984,5.58088 -37.28678,11.17083 -43.66797,12.6582 -2.24618,0.52356 -7.47624,2.10254 -11.62304,3.50781 -7.50984,2.54496 -27.00222,7.64073 -32.36524,8.46094 -20.00371,17.74118 -51.79082,231.5704 -35.16591,291.79485 38.64479,139.99344 170.81737,145.27834 262.93366,115.93364 7.77213,-3.18441 14.16283,-6.24181 19.3638,-9.05427 15.64501,-8.46015 25.96934,-19.49634 26.66223,-20.11474 0.18512,-0.16521 -7.4131,4.31828 -8.58833,4.73027 -22.26363,7.80479 -49.83593,27.64957 -173.57724,-24.09003 -90.02028,-37.63993 -79.98149,-122.33558 -81.985,-212.3618 -5.86073,-134.50334 120.62261,-163.51768 224.36474,-203.98601 7.233,-2.94149 13.4528,-5.17591 13.8223,-4.96484 z"
       sodipodi:nodetypes="cssssssssssssssscsssscscc" /></g><g
     inkscape:groupmode="layer"
     id="layer7"
     inkscape:label="spots"
     transform="translate(-38.801094,-886.32636)"><path
       style="display:inline;fill:#351b32"
       d="m 414.71334,1440.0755 c -1.38226,-0.5154 -7.60247,-2.2241 -13.82267,-3.7971 -11.85068,-2.9969 -15.54989,-4.4312 -16.62904,-6.4476 -5.72982,-10.7062 22.81626,-14.7668 35.1689,-5.0026 11.28891,8.9234 7.87939,19.9439 -4.71719,15.2473 z"
       id="path19" /><path
       style="display:inline;fill:#351b32"
       d="m 190.40364,1475.4935 c -11.14804,-8.3335 8.36326,-13.705 22.62316,-6.2281 12.09043,6.3397 19.6126,21.5539 11.53101,23.3235 -1.41997,0.3109 -30.01783,-14.0033 -34.15417,-17.0954 z"
       id="path18" /><path
       style="display:inline;fill:#351b32"
       d="m 352.82545,1492.1649 c -9.84411,-1.7916 0.64746,-10.8524 12.56607,-10.8524 11.9557,0 20.59513,6.6401 13.07804,10.0515 -2.63208,1.1945 -20.4277,1.7503 -25.64411,0.8009 z"
       id="path16" /><path
       style="display:inline;fill:#351b32"
       d="m 426.95072,1549.0011 c -3.22282,-1.9713 1.17285,-6.9869 6.96319,-7.9454 12.18049,-2.016 26.23883,3.4384 18.31834,7.1074 -2.16413,1.0024 -23.83814,1.7209 -25.28153,0.838 z"
       id="path15" /></g><g
     id="layer1-2"
     inkscape:label="hat"
     transform="translate(-773.06118,-368.81787)"><path
       style="display:inline;fill:#418698;fill-opacity:1"
       d="m 945.99085,449.6164 c 2.69603,-14.61358 2.25205,-20.65145 5.11136,-16.33074 0.88193,1.33268 4.52439,6.04436 8.09436,10.4704 114.02573,141.36886 73.96753,87.06102 136.07803,162.50164 6.6902,8.91015 8.7557,10.1902 19.112,11.84454 49.8385,7.96116 83.0143,1.61585 120.1361,-19.44779 6.8996,-3.91498 6.477,-2.98128 3.2971,1.69332 -94.4338,50.91792 9.2195,-9.53108 -0.043,-0.33322 -31.689,31.46787 -145.5167,67.395 -259.59031,97.07084 -7.07031,1.69088 -20.52174,2.21849 -37.63075,2.98392 -9.25756,0.41417 -9.68914,0.12604 -3.14152,-2.09736 5.06884,-1.72125 40.07491,-25.28518 55.68003,-37.48038 7.71425,-6.02862 12.21595,-8.8551 32.28245,-20.26922 10.5922,-6.025 12.346,-7.48209 12.13,-10.07772 -0.1374,-1.65065 -0.4571,-2.25045 -1.1213,-2.10391 -4.9532,1.0928 -19.9404,4.9272 -26.1883,5.92758 -4.7643,0.7628 -9.4953,-1.7882 -16.72942,-8.71977 -22.54609,-57.45906 -26.23795,-123.64291 -40.68029,-184.49982 -1.08025,-4.77194 -3.52704,-9.12286 -3.71949,-8.00119 z"
       id="path26-1"
       sodipodi:nodetypes="cssssscssssssssssscc" /><path
       style="display:inline;fill:#442947;fill-opacity:1"
       d="m 778.5733,730.72459 -4.51843,-2.33077 9.42455,-0.44958 c 34.61455,-2.47493 74.57017,-23.34946 117.8069,-51.97952 10.90241,-7.21925 9.69359,-5.69078 10.63936,-13.4527 11.94576,-67.80085 20.41582,-136.2098 32.36041,-204.00406 0.83622,-4.66515 1.83363,-10.88536 2.21646,-13.82268 1.00514,-7.71201 2.26346,-12.70767 2.91529,-12.70767 1.13806,0 2.28885,3.99916 3.3691,8.7711 35.49287,136.22123 31.03229,171.92774 44.80529,185.12482 8.85957,10.01852 26.64907,4.6697 38.79277,2.16719 0.6642,-0.14654 0.9838,0.45326 1.1212,2.10391 0.2161,2.59563 -1.5378,4.05272 -12.1299,10.07772 -20.0665,11.41412 -24.5682,14.2406 -32.2825,20.26922 -15.60512,12.1952 -50.61119,35.75913 -55.68003,37.48038 -6.54762,2.2234 -6.11604,2.51153 3.14152,2.09736 54.89711,-2.45601 133.25241,-28.82011 238.44111,-71.42481 31.522,-12.76739 45.5185,-24.10793 59.1777,-28.93931 0.845,-0.14956 -8.4216,12.04498 -17.7958,22.74317 -13.6192,15.54287 -36.6641,31.8152 -63.5008,44.83895 -7.5994,3.68796 -7.4141,3.70057 -9.548,-0.65027 -1.7589,-3.81535 -4.721,-6.80861 -7.1818,-10.16138 -9.5813,-13.16895 -51.0224,17.91772 -199.90656,56.83373 -2.46455,0.57446 -32.27862,10.17692 -43.98965,11.96798 -6.3323,0.92554 -6.73479,9.33799 -8.43075,14.51032 -30.36575,8.55385 -80.2472,5.00707 -109.24744,-9.0631 z"
       id="path24-8"
       sodipodi:nodetypes="scsssssssssscsssssssscssss" /></g><g
     inkscape:groupmode="layer"
     id="layer6"
     inkscape:label="face"
     transform="translate(-866.38166,-837.87623)"><path
       style="display:inline;fill:#351b32"
       d="m 1185.127,1232.3539 c -5.5712,-2.9395 -6.3309,-11.6215 -1.3592,-15.5323 9.3396,-7.3464 22.2832,3.4028 15.5253,12.8933 -2.7987,3.9305 -9.3908,5.1585 -14.1661,2.639 z"
       id="path23" /><path
       style="display:inline;fill:#351b32;fill-opacity:1"
       d="m 1066.3346,1232.2542 c -8.2346,-4.721 -5.1285,-17.6517 4.443,-18.4964 10.8392,-0.9565 16.0027,13.7203 6.5109,18.5067 -3.6533,1.8423 -7.7292,1.8384 -10.9539,-0.01 z"
       id="path22" /><path
       style="display:inline;fill:#351b32;stroke-width:0.750746"
       d="m 1127.4149,1254.9566 c -13.5106,-2.6675 -27.1158,-26.6934 -18.0721,-28.0507 2.4102,-0.3617 3.3883,1.6676 5.8145,7.4406 8.963,21.3259 29.8736,19.8634 34.2173,-2.8363 0.387,-2.0228 0.7038,-3.7156 0.7038,-3.762 5e-4,-0.5203 1.733,-1.5667 2.5939,-1.5667 2.5836,0 4.1299,4.6308 3.0932,9.2633 -3.1216,13.9487 -13.2634,22.4907 -28.3506,19.5118 z"
       id="path21"
       sodipodi:nodetypes="sssscsss" /><path
       style="fill:#351b32;fill-opacity:1"
       d="m 1063.4589,1197.9591 21.3316,13.3741 4.2066,-4.9805 -21.6523,-13.143 z"
       id="path42" /></g><g
     inkscape:groupmode="layer"
     id="layer2"
     inkscape:label="right arm"
     transform="translate(-1226.484,-633.60002)"><path
       d="m 1721.789,829.83059 a 14.672465,22.45064 0 0 1 -5.1601,1.57031 14.672465,22.45064 0 0 1 -6.2774,-2.38672 c -2.0509,19.85129 -3.2129,31.55567 -3.7383,38.37109 -0.3729,4.838 -0.9569,11.34108 -1.2988,14.45118 -0.3419,3.11009 -1.7472,18.09384 -3.123,33.29882 -3.1841,35.19057 -3.1578,34.92126 -3.5,36.59375 -0.1917,0.937 -1.3888,1.96019 -3.5762,3.05469 -7.6929,3.8495 -10.4138,9.78939 -7.4531,16.27149 1.1145,2.44009 4.8111,6.5957 5.8672,6.5957 3.0175,0 0.8805,9.06512 -3.6485,15.47461 -8.0101,11.33579 -28.9507,25.46069 -53.5527,36.12309 -2.5818,1.1189 -2.6991,1.2839 -2.3145,3.2226 0.9004,4.5392 3.0569,11.1524 3.6368,11.1524 5.4922,0 35.1534,-15.6701 47.8535,-25.2813 7.8783,-5.9621 7.9189,-5.9312 6.6679,4.9473 -0.3234,2.8115 -0.8968,9.3146 -1.2734,14.4511 -0.719,9.8054 -1.8132,21.8149 -3.5801,39.2637 -1.2194,12.041 -0.9551,13.9154 2.2657,16.086 2.7321,1.8412 7.0103,1.9196 9.4648,0.1718 2.6949,-1.919 3.2392,-5.5003 5.0586,-33.3027 0.3731,-5.7018 1.0873,-14.6075 1.5879,-19.791 0.5006,-5.1835 1.3422,-16.4936 1.8691,-25.1328 0.5269,-8.6391 1.0764,-16.13213 1.2207,-16.65043 0.1443,-0.51839 0.5698,-3.91056 0.9473,-7.53906 0.9022,-8.67159 0.7853,-8.4107 4.7676,-10.6582 9.7247,-5.4883 10.2223,-19.83305 0.8691,-25.08984 -2.5154,-1.4137 -2.5152,-1.41519 -2.2031,-6.23829 0.1717,-2.65269 0.4663,-7.93317 0.6562,-11.73437 0.1899,-3.8012 0.887,-13.8383 1.5489,-22.30469 0.6619,-8.46639 1.5042,-19.77456 1.8711,-25.13086 0.3669,-5.35629 1.0853,-14.97029 1.5957,-21.36328 0.5105,-6.39301 1.4974,-19.25759 2.1933,-28.58789 0.209,-2.80256 0.4934,-6.42365 0.7578,-9.9082 z"
       style="display:inline;fill:#351b32"
       id="path49" /></g><g
     inkscape:groupmode="layer"
     id="layer3"
     inkscape:label="left arm"
     transform="translate(-922.68856,-921.68186)"><path
       style="display:inline;fill:#351b32"
       d="m 1004.8452,1452.9128 c -28.70603,-13.0611 -41.68947,-45.4087 -28.87287,-71.9355 5.40966,-11.1965 24.23357,-25.9058 40.44397,-31.6036 6.2121,-2.1836 7.659,-2.2318 7.1905,-0.2403 -0.1925,0.8181 -0.6041,3.4398 -0.9149,5.8261 -1.1511,8.838 -1.1275,8.8013 -7.6607,11.9527 -7.2936,3.518 -15.35089,8.9918 -19.12705,12.9942 -16.27232,17.2469 -10.28058,44.4805 12.40755,56.3948 3.4514,1.8125 3.3193,1.2058 2.4511,11.2588 -0.6937,8.0317 -0.4715,7.8308 -5.9176,5.3528 z"
       id="path17" /></g><g
     inkscape:groupmode="layer"
     id="layer4"
     inkscape:label="feet"
     transform="translate(-25.113424,30.790238)"><path
       style="display:inline;fill:#351b32"
       d="m 221.51301,796.51165 c -10.71258,-0.2325 -29.23182,-0.7406 -41.15388,-1.1291 -11.92206,-0.3884 -31.00678,-0.9538 -42.41049,-1.2563 -11.40371,-0.3026 -24.40959,-0.8414 -28.90196,-1.1975 -4.49237,-0.356 -12.903776,-0.8321 -18.692026,-1.058 -21.69894,-0.8468 -8.87897,-1.3476 45.866156,-1.7918 98.41393,-0.7986 92.93366,-0.3969 93.81277,-6.8752 1.1857,-8.7374 2.57811,-9.5015 17.44691,-9.5731 6.4519,-0.031 12.08415,-0.1017 12.51611,-0.157 0.59715,-0.076 0.80298,-3.2251 0.85881,-13.1379 0.0404,-7.1705 0.25245,-14.8338 0.47123,-17.0294 l 0.39779,-3.9921 5.47276,-0.2429 c 9.49991,-0.4215 8.66407,-2.7823 8.66407,24.4705 0,19.1463 0.15968,23.6325 0.8619,24.2153 0.61007,0.5063 5.97981,0.6665 18.37788,0.5482 l 17.51597,-0.1672 0.38263,-23.8755 c 0.21044,-13.1316 0.42249,-24.0876 0.47122,-24.3468 0.0487,-0.2592 3.35142,-0.4712 7.3393,-0.4712 h 7.2507 l -0.0806,17.3277 c -0.0925,19.8967 -0.54502,18.1959 4.60257,17.2995 18.29108,-3.1853 28.41352,0.9585 28.41352,11.6316 0,6.2273 -1.83928,5.7556 25.45436,6.5283 34.8731,0.9874 36.23095,1.44 7.21742,2.4058 -13.47711,0.4486 -31.19905,1.0625 -39.38208,1.364 -13.65833,0.5034 -43.81367,0.7904 -93.81826,0.8929 -10.71257,0.022 -28.24224,-0.1503 -38.95481,-0.3828 z"
       id="path9" /></g><g
     inkscape:groupmode="layer"
     id="layer8"
     inkscape:label="stars"
     transform="translate(-313.0493,-460.83736)"><path
       style="display:inline;fill:#e9aa56"
       d="m 658.7847,532.16774 c -0.49762,-0.98242 -1.25893,-2.91717 -1.69179,-4.29943 -2.58786,-8.26385 -8.00298,-14.38175 -16.18812,-18.28906 -3.1965,-1.52589 -5.81181,-3.04371 -5.81181,-3.37293 0,-0.79723 2.12516,-1.8994 3.66233,-1.8994 8.10704,0 14.62916,-5.68422 18.00323,-15.69038 1.40413,-4.16409 3.10747,-5.65866 3.83187,-3.36223 4.61651,14.63488 7.96697,18.1347 18.80365,19.64195 6.12969,0.85256 6.24279,0.97304 2.44755,2.60714 -8.04537,3.46407 -9.60573,4.35807 -12.94948,7.41934 -4.07638,3.73202 -6.34472,7.93946 -7.65796,14.2044 -1.0549,5.03251 -1.29165,5.32639 -2.44947,3.0406 z"
       id="path40" /><path
       style="display:inline;fill:#e9aa56"
       d="m 770.19628,568.89068 c -0.3708,-0.95031 -0.9894,-3.91618 -1.3749,-6.59082 -0.3854,-2.67465 -0.9744,-5.78475 -1.3089,-6.91134 -0.3344,-1.12659 -1.0046,-3.89088 -1.4892,-6.14287 -3.2248,-14.98402 -13.8348,-25.00599 -29.8621,-28.20694 -6.42276,-1.28275 -7.01387,-2.41503 -1.88491,-3.61059 13.31811,-3.10445 16.94001,-4.65938 21.62891,-9.28571 4.0949,-4.0402 7.041,-8.53481 8.2443,-12.57773 1.8063,-6.0688 3.9443,-17.03774 4.6591,-23.90396 1.5297,-14.69215 2.5686,-14.45223 3.7997,0.87747 2.4604,30.63531 8.4095,40.66301 25.9845,43.79869 10.3909,1.85393 11.0836,3.63575 2.2837,5.87482 -17.4817,4.44807 -25.6568,16.39268 -27.4167,40.05826 -0.5965,8.02007 -1.7805,10.42215 -3.2635,6.62072 z"
       id="path39" /><path
       style="display:inline;fill:#e9aa56"
       d="m 910.45558,636.02903 c -0.2205,-0.35684 -0.8427,-2.13767 -1.3826,-3.9574 -2.2906,-7.72064 -5.7844,-11.99742 -11.5148,-14.09539 -4.864,-1.78078 -4.5443,-4.60666 0.5211,-4.60666 3.3456,0 9.7933,-6.48669 10.5345,-10.59826 1.0624,-5.89246 2.8873,-5.98211 4.6015,-0.22606 1.5241,5.11746 4.2501,8.07102 9.6243,10.4276 4.5129,1.97889 4.5772,3.03572 0.3141,5.16342 -6.3302,3.15943 -10.5241,9.393 -10.5241,15.64242 0,1.65701 -1.5494,3.26088 -2.174,2.25033 z"
       id="path37" /><path
       style="display:inline;fill:#e9aa56;stroke-width:1.51759"
       d="m 688.43322,653.14304 c -0.33463,-0.54153 -1.27887,-3.24411 -2.09822,-6.00571 -3.47619,-11.71677 -8.77835,-18.20717 -17.47475,-21.39103 -7.38156,-2.7025 -6.89639,-6.99103 0.79081,-6.99103 5.07725,0 14.86222,-9.84414 15.98706,-16.08382 1.61229,-8.94234 4.38174,-9.07839 6.98319,-0.34306 2.31296,7.76621 6.44992,12.2485 14.60575,15.82482 6.84874,3.00315 6.94632,4.60699 0.47668,7.83596 -9.60666,4.79472 -15.97128,14.25473 -15.97128,23.73879 0,2.51467 -2.35135,4.94868 -3.29924,3.41508 z"
       id="path37-1" /></g></svg>
